<svg width="256" height="256" viewBox="0 0 256 256" fill="none" xmlns="http://www.w3.org/2000/svg">
<path fill-rule="evenodd" clip-rule="evenodd" d="M127.599 254.847C198.07 254.847 255.199 198.247 255.199 128.429C255.199 58.6103 198.07 2.01102 127.599 2.01102C57.128 2.01102 0 58.6103 0 128.429C0 198.247 57.128 254.847 127.599 254.847ZM167.406 60.9018C169.343 54.0829 162.664 50.0506 156.564 54.3562L71.4116 114.457C64.7963 119.126 65.8368 128.429 72.9747 128.429H95.3977V128.257H139.099L103.491 140.704L87.7928 195.956C85.8552 202.775 92.5338 206.807 98.6343 202.501L183.787 142.401C190.402 137.732 189.361 128.429 182.224 128.429H148.22L167.406 60.9018Z" fill="url(#paint0_linear_6656_21086)"/>
<defs>
<linearGradient id="paint0_linear_6656_21086" x1="0" y1="2.01102" x2="252.825" y2="257.198" gradientUnits="userSpaceOnUse">
<stop stop-color="#F74FAC"/>
<stop offset="1" stop-color="#FCB24F"/>
</linearGradient>
</defs>
</svg>
