<svg width="512" height="256" viewBox="0 0 512 256" fill="none" xmlns="http://www.w3.org/2000/svg">
<path d="M171.174 122.357H170.869L162.267 135.438H138.815L158.737 104.01L139.179 74.7079H163.732L170.818 87.6023H171.064L178.21 74.7079H202.762L183.086 104.07L203.186 135.396H179.564L171.174 122.357Z" fill="#EA275E"/>
<path d="M213.083 132.737C208.294 130.155 204.331 126.272 201.653 121.536C198.841 116.522 197.409 110.851 197.505 105.103C197.408 99.3325 198.87 93.6432 201.738 88.6354C204.538 83.8436 208.651 79.9537 213.591 77.4258C218.94 74.6974 224.877 73.3252 230.88 73.4296C236.031 73.4187 241.124 74.525 245.806 76.6723C250.409 78.7242 254.402 81.9326 257.397 85.9854L242.682 98.5158C241.346 96.8084 239.636 95.4299 237.684 94.4862C235.732 93.5425 233.59 93.0587 231.422 93.0718C229.869 93.0058 228.32 93.268 226.876 93.8414C225.431 94.4147 224.124 95.2863 223.04 96.3992C221.973 97.5415 221.142 98.8836 220.596 100.348C220.049 101.813 219.798 103.371 219.856 104.933C219.795 106.534 220.056 108.13 220.623 109.628C221.191 111.126 222.053 112.495 223.158 113.654C224.264 114.778 225.592 115.659 227.056 116.242C228.521 116.825 230.091 117.097 231.667 117.04C233.749 117.089 235.816 116.667 237.713 115.807C239.609 114.947 241.288 113.669 242.623 112.071L257.702 125.211C254.603 128.869 250.667 131.727 246.229 133.542C240.906 135.747 235.184 136.828 229.423 136.716C223.727 136.805 218.102 135.435 213.083 132.737V132.737Z" fill="#EA275E"/>
<path d="M263.018 64.3786C261.668 63.1075 260.64 61.5325 260.02 59.7845C259.401 58.0364 259.207 56.1657 259.455 54.3277C259.704 52.4898 260.387 50.7376 261.448 49.2167C262.51 47.6958 263.919 46.4501 265.558 45.5831C267.582 44.5169 269.841 43.9754 272.128 44.0083C275.504 43.8867 278.79 45.104 281.272 47.3949C282.438 48.4692 283.36 49.7806 283.976 51.241C284.592 52.7014 284.889 54.2769 284.845 55.8614C284.891 57.4662 284.596 59.0626 283.981 60.5453C283.365 62.028 282.442 63.3633 281.272 64.4633C278.731 66.6583 275.486 67.8661 272.128 67.8661C268.771 67.8661 265.525 66.6583 262.985 64.4633L263.018 64.3786ZM261.08 74.7077H283.186V135.438H261.08V74.7077Z" fill="#EA275E"/>
<path d="M304.377 135.463C302.217 134.662 300.256 133.403 298.628 131.772C296.887 129.957 295.574 127.776 294.784 125.388C293.808 122.481 293.336 119.429 293.387 116.363V92.2675H286.792V74.708H293.387V55.6331L315.493 53.3302V74.708H328.693V92.2675H315.493V111.579C315.484 112.318 315.524 113.056 315.612 113.789C315.698 114.441 315.86 115.08 316.094 115.694C316.326 116.326 316.765 116.86 317.339 117.21C317.99 117.59 318.736 117.777 319.489 117.752C321.035 117.758 322.563 117.428 323.968 116.786L329.353 132.238C324.001 135.46 317.813 137.019 311.573 136.716C309.119 136.736 306.681 136.311 304.377 135.463V135.463Z" fill="#EA275E"/>
<path d="M389.609 110.487H349.74C349.926 111.802 350.392 113.062 351.108 114.181C351.824 115.3 352.772 116.252 353.889 116.972C356.428 118.536 359.374 119.314 362.355 119.207C367.401 119.207 372.063 116.967 376.342 112.485L387.788 125.083C384.731 128.747 380.837 131.622 376.435 133.465C371.241 135.701 365.63 136.807 359.976 136.708C354.3 136.791 348.696 135.425 343.695 132.737C338.903 130.15 334.942 126.257 332.274 121.51C329.576 116.476 328.154 110.858 328.134 105.147C328.113 99.4355 329.494 93.8066 332.155 88.7535C334.766 84.0176 338.66 80.1146 343.39 77.4931C348.352 74.7427 353.948 73.3415 359.62 73.4292C363.79 73.4005 367.924 74.1946 371.787 75.7659C375.425 77.2151 378.731 79.3867 381.506 82.1496C384.274 84.9872 386.437 88.3572 387.865 92.0554C389.436 96.0564 390.226 100.321 390.193 104.62C390.231 106.592 390.035 108.561 389.609 110.487V110.487ZM353.203 92.4449C351.394 93.9455 350.191 96.0511 349.816 98.3714H368.705C368.45 97.1911 368.034 96.0515 367.469 94.9848C366.958 94.0339 366.291 93.1753 365.496 92.4449C364.72 91.7278 363.803 91.1799 362.804 90.8362C361.742 90.4689 360.625 90.2856 359.502 90.2944C357.213 90.2402 354.98 91.0025 353.203 92.4449Z" fill="#EA275E"/>
<path d="M402.021 167.297C400.695 166.038 399.646 164.517 398.939 162.83C398.233 161.144 397.884 159.33 397.914 157.502C397.896 155.693 398.255 153.901 398.967 152.239C399.68 150.578 400.732 149.083 402.054 147.85C404.24 145.697 407.07 144.319 410.112 143.926C413.155 143.533 416.242 144.147 418.903 145.674C421.001 146.88 422.752 148.61 423.983 150.694C425.224 152.736 425.88 155.079 425.879 157.468C425.914 159.3 425.567 161.121 424.862 162.813C424.157 164.505 423.108 166.032 421.781 167.297C419.135 169.882 415.583 171.329 411.884 171.329C408.185 171.329 404.633 169.882 401.987 167.297H402.021ZM398.473 64.0063L425.075 57.4438L420.842 133.084H402.757L398.473 64.0063Z" fill="#EA275E"/>
<path d="M150.008 150.237C150.446 150.321 150.872 150.457 151.278 150.643C151.677 150.826 152.039 151.082 152.344 151.397C152.667 151.738 152.935 152.126 153.14 152.548C153.39 153.06 153.567 153.604 153.665 154.166C153.79 154.867 153.849 155.578 153.843 156.291V165.257H148.416V157.637C148.433 157.084 148.361 156.533 148.204 156.003C148.105 155.654 147.883 155.353 147.578 155.156C147.233 154.988 146.852 154.909 146.469 154.928C146.167 154.915 145.866 154.973 145.591 155.098C145.316 155.223 145.074 155.411 144.885 155.647C144.453 156.29 144.25 157.059 144.31 157.832V165.257H138.883V150.423H144.31V152.049C144.83 151.435 145.478 150.942 146.21 150.607C146.942 150.272 147.738 150.102 148.543 150.11C149.034 150.105 149.525 150.148 150.008 150.237V150.237Z" fill="#EA275E"/>
<path d="M166.238 150.237C166.676 150.321 167.102 150.458 167.508 150.643C167.907 150.826 168.269 151.082 168.575 151.397C168.897 151.738 169.165 152.126 169.371 152.548C169.621 153.06 169.798 153.604 169.895 154.166C170.02 154.867 170.08 155.578 170.073 156.291V165.257H164.646V157.637C164.659 157.063 164.576 156.491 164.401 155.944C164.302 155.594 164.079 155.293 163.774 155.097C163.43 154.928 163.048 154.85 162.665 154.868C162.363 154.855 162.063 154.914 161.787 155.039C161.512 155.164 161.271 155.352 161.082 155.588C160.653 156.232 160.45 157 160.506 157.772V165.257H155.088V150.423H160.515V152.049C161.035 151.435 161.683 150.942 162.415 150.607C163.147 150.272 163.943 150.102 164.748 150.11C165.248 150.104 165.747 150.146 166.238 150.237V150.237Z" fill="#EA275E"/>
<path d="M174.671 164.63C173.461 164.018 172.455 163.068 171.775 161.895C171.104 160.657 170.752 159.27 170.752 157.861C170.752 156.452 171.104 155.066 171.775 153.827C172.457 152.654 173.462 151.701 174.671 151.084C175.989 150.442 177.437 150.108 178.904 150.108C180.371 150.108 181.818 150.442 183.137 151.084C184.341 151.704 185.343 152.656 186.024 153.827C186.707 155.062 187.066 156.45 187.066 157.861C187.066 159.272 186.707 160.661 186.024 161.895C185.345 163.066 184.343 164.016 183.137 164.63C181.818 165.272 180.371 165.606 178.904 165.606C177.437 165.606 175.989 165.272 174.671 164.63V164.63ZM180.834 159.974C181.315 159.373 181.577 158.626 181.577 157.857C181.577 157.087 181.315 156.341 180.834 155.74C180.591 155.468 180.292 155.252 179.957 155.106C179.622 154.959 179.26 154.887 178.895 154.894C178.523 154.892 178.154 154.967 177.812 155.114C177.479 155.256 177.181 155.469 176.937 155.736C176.693 156.003 176.509 156.319 176.398 156.663C176.26 157.043 176.191 157.444 176.194 157.848C176.192 158.172 176.238 158.495 176.33 158.805C176.404 159.108 176.533 159.395 176.711 159.652C176.869 159.887 177.063 160.096 177.287 160.27C177.506 160.45 177.755 160.591 178.023 160.685C178.296 160.775 178.582 160.821 178.87 160.82C179.239 160.83 179.606 160.76 179.945 160.614C180.285 160.467 180.588 160.249 180.834 159.974V159.974Z" fill="#EA275E"/>
<path d="M202.068 150.424L196.387 165.257H191.494L185.804 150.39H191.417L193.915 158.856H194.033L196.446 150.39L202.068 150.424Z" fill="#EA275E"/>
<path d="M216.58 150.423V165.257H211.432V163.86H211.39C210.933 164.427 210.348 164.876 209.682 165.171C209.016 165.465 208.29 165.596 207.563 165.553C206.601 165.562 205.649 165.365 204.769 164.977C203.937 164.613 203.193 164.076 202.585 163.402C201.955 162.686 201.474 161.851 201.171 160.947C200.817 159.935 200.643 158.869 200.654 157.798C200.646 156.732 200.818 155.673 201.162 154.665C201.458 153.765 201.927 152.93 202.542 152.21C203.123 151.541 203.839 151.001 204.642 150.627C205.455 150.247 206.343 150.053 207.241 150.059C207.976 150.047 208.703 150.2 209.37 150.508C210.037 150.816 210.626 151.27 211.093 151.837H211.136V150.373L216.58 150.423ZM210.653 160.024C211.135 159.411 211.397 158.654 211.397 157.874C211.397 157.094 211.135 156.337 210.653 155.723C210.415 155.461 210.125 155.252 209.801 155.109C209.478 154.966 209.128 154.892 208.774 154.892C208.42 154.892 208.07 154.966 207.746 155.109C207.422 155.252 207.132 155.461 206.894 155.723C206.411 156.339 206.148 157.099 206.148 157.882C206.148 158.665 206.411 159.425 206.894 160.041C207.128 160.314 207.419 160.531 207.747 160.677C208.075 160.824 208.432 160.896 208.791 160.888C209.141 160.888 209.488 160.81 209.806 160.661C210.123 160.512 210.404 160.294 210.628 160.024H210.653Z" fill="#EA275E"/>
<path d="M221.253 165.299C220.723 165.1 220.242 164.792 219.839 164.393C219.413 163.948 219.092 163.412 218.9 162.827C218.661 162.115 218.546 161.368 218.561 160.617V154.691H216.944V150.398H218.586V145.784L223.996 145.217V150.457H227.231V154.75H223.996V159.483C223.982 159.663 223.982 159.844 223.996 160.025C224.017 160.184 224.057 160.34 224.115 160.49C224.169 160.644 224.273 160.776 224.411 160.863C224.574 160.955 224.758 161.002 224.945 160.998C225.321 160.996 225.693 160.916 226.037 160.761L227.358 164.537C226.756 164.896 226.114 165.18 225.444 165.384C224.651 165.59 223.833 165.684 223.014 165.663C222.41 165.651 221.813 165.527 221.253 165.299V165.299Z" fill="#EA275E"/>
<path d="M228.551 147.892C228.085 147.438 227.785 146.841 227.697 146.197C227.61 145.552 227.741 144.897 228.069 144.336C228.337 143.892 228.72 143.529 229.178 143.286C229.674 143.028 230.227 142.897 230.787 142.905C231.198 142.892 231.608 142.96 231.993 143.105C232.377 143.25 232.73 143.47 233.03 143.751C233.31 144.016 233.53 144.337 233.676 144.693C233.822 145.049 233.891 145.433 233.877 145.817C233.892 146.208 233.825 146.599 233.679 146.962C233.533 147.325 233.312 147.654 233.03 147.925C232.424 148.493 231.617 148.798 230.787 148.772C230.374 148.781 229.964 148.708 229.58 148.557C229.196 148.406 228.847 148.18 228.551 147.892V147.892ZM228.077 150.431H233.487V165.256H228.077V150.431Z" fill="#EA275E"/>
<path d="M238.373 164.63C237.175 164.005 236.184 163.046 235.519 161.87C234.842 160.634 234.487 159.246 234.487 157.836C234.487 156.426 234.842 155.039 235.519 153.802C236.201 152.628 237.207 151.676 238.415 151.059C239.734 150.416 241.181 150.083 242.648 150.083C244.115 150.083 245.563 150.416 246.881 151.059C248.086 151.679 249.087 152.631 249.768 153.802C250.452 155.037 250.81 156.425 250.81 157.836C250.81 159.247 250.452 160.636 249.768 161.87C249.089 163.041 248.087 163.99 246.881 164.605C245.563 165.247 244.115 165.581 242.648 165.581C241.181 165.581 239.734 165.247 238.415 164.605L238.373 164.63ZM244.528 159.974C245.049 159.398 245.326 158.642 245.298 157.866C245.334 157.084 245.063 156.318 244.545 155.732C244.301 155.46 244.002 155.243 243.668 155.097C243.333 154.951 242.971 154.879 242.606 154.885C242.233 154.884 241.865 154.959 241.522 155.106C241.19 155.248 240.892 155.46 240.648 155.728C240.404 155.995 240.22 156.311 240.108 156.655C239.97 157.035 239.902 157.436 239.905 157.84C239.903 158.164 239.948 158.487 240.041 158.797C240.115 159.099 240.241 159.385 240.413 159.644C240.576 159.877 240.773 160.086 240.997 160.262C241.217 160.442 241.466 160.582 241.734 160.677C242.007 160.767 242.293 160.812 242.58 160.812C242.947 160.824 243.311 160.755 243.648 160.611C243.984 160.466 244.285 160.248 244.528 159.974V159.974Z" fill="#EA275E"/>
<path d="M262.697 150.237C263.132 150.32 263.556 150.456 263.958 150.643C264.359 150.828 264.723 151.083 265.034 151.397C265.353 151.74 265.621 152.128 265.829 152.548C266.077 153.06 266.25 153.605 266.346 154.165C266.471 154.867 266.53 155.578 266.524 156.291V165.257H261.097V157.637C261.135 157.066 261.075 156.493 260.919 155.943C260.823 155.593 260.599 155.291 260.292 155.097C259.951 154.928 259.572 154.85 259.192 154.868C258.89 154.854 258.588 154.912 258.313 155.037C258.038 155.162 257.796 155.351 257.608 155.588C257.172 156.229 256.966 156.999 257.024 157.772V165.257H251.606V150.423H257.033V152.049C257.553 151.435 258.201 150.942 258.933 150.607C259.665 150.272 260.461 150.102 261.266 150.11C261.746 150.108 262.225 150.15 262.697 150.237V150.237Z" fill="#EA275E"/>
<path d="M276.759 164.63C275.587 163.999 274.618 163.048 273.965 161.887C273.295 160.649 272.945 159.264 272.945 157.857C272.945 156.45 273.295 155.065 273.965 153.827C274.647 152.654 275.652 151.701 276.861 151.084C278.17 150.416 279.624 150.082 281.094 150.11C282.353 150.108 283.598 150.376 284.743 150.898C285.87 151.402 286.849 152.186 287.588 153.175L283.981 156.248C283.653 155.83 283.234 155.492 282.756 155.26C282.278 155.028 281.753 154.909 281.221 154.911C280.839 154.899 280.459 154.968 280.106 155.114C279.753 155.26 279.434 155.479 279.172 155.757C278.647 156.324 278.367 157.076 278.393 157.849C278.379 158.241 278.443 158.632 278.581 159C278.719 159.368 278.929 159.704 279.198 159.991C279.468 160.268 279.792 160.486 280.15 160.632C280.509 160.778 280.894 160.848 281.28 160.837C281.791 160.849 282.297 160.746 282.762 160.535C283.227 160.324 283.638 160.01 283.964 159.618L287.656 162.835C286.9 163.732 285.938 164.432 284.853 164.876C283.55 165.415 282.149 165.68 280.739 165.655C279.347 165.657 277.977 165.304 276.759 164.63V164.63Z" fill="#EA275E"/>
<path d="M291.398 164.63C290.19 164.018 289.187 163.068 288.511 161.895C287.833 160.659 287.478 159.271 287.478 157.861C287.478 156.451 287.833 155.064 288.511 153.827C289.189 152.654 290.192 151.702 291.398 151.084C292.716 150.442 294.164 150.108 295.631 150.108C297.098 150.108 298.545 150.442 299.864 151.084C301.069 151.706 302.073 152.657 302.76 153.827C303.437 155.064 303.792 156.451 303.792 157.861C303.792 159.271 303.437 160.659 302.76 161.895C302.075 163.064 301.07 164.013 299.864 164.63C298.545 165.272 297.098 165.606 295.631 165.606C294.164 165.606 292.716 165.272 291.398 164.63V164.63ZM297.561 159.974C298.054 159.378 298.324 158.63 298.324 157.857C298.324 157.084 298.054 156.336 297.561 155.74C297.318 155.468 297.019 155.252 296.684 155.106C296.35 154.959 295.987 154.887 295.622 154.894C295.25 154.892 294.881 154.967 294.539 155.114C294.218 155.258 293.93 155.465 293.692 155.723C293.446 155.997 293.256 156.316 293.133 156.663C292.995 157.043 292.926 157.444 292.93 157.848C292.928 158.172 292.973 158.495 293.065 158.805C293.139 159.108 293.269 159.395 293.446 159.652C293.607 159.885 293.801 160.094 294.022 160.27C294.244 160.452 294.496 160.592 294.767 160.685C295.04 160.776 295.326 160.822 295.614 160.82C295.973 160.822 296.329 160.747 296.657 160.601C296.986 160.455 297.279 160.241 297.519 159.974H297.561Z" fill="#EA275E"/>
<path d="M328.439 156.587V165.257H323.029V157.781C323.029 157.544 323.029 157.324 323.029 157.12C323.014 156.916 322.986 156.712 322.944 156.511C322.913 156.326 322.865 156.145 322.8 155.969C322.741 155.809 322.664 155.655 322.571 155.512C322.481 155.381 322.37 155.266 322.241 155.173C322.109 155.081 321.963 155.01 321.809 154.962C321.632 154.903 321.446 154.875 321.259 154.877C320.98 154.873 320.703 154.938 320.455 155.066C320.207 155.195 319.995 155.383 319.837 155.613C319.424 156.258 319.231 157.018 319.286 157.781V165.257H313.834V157.781C313.839 157.401 313.81 157.021 313.749 156.646C313.703 156.333 313.611 156.028 313.478 155.74C313.362 155.474 313.167 155.25 312.92 155.097C312.662 154.951 312.37 154.875 312.073 154.877C311.783 154.869 311.495 154.931 311.235 155.057C310.974 155.184 310.747 155.372 310.574 155.605C310.153 156.249 309.954 157.013 310.007 157.781V165.257H304.589V150.424H310.007V152.117C310.487 151.487 311.103 150.974 311.811 150.618C312.491 150.288 313.238 150.117 313.995 150.119C314.824 150.056 315.655 150.219 316.399 150.588C317.144 150.957 317.776 151.521 318.228 152.218H318.279C318.866 151.522 319.607 150.97 320.442 150.605C321.278 150.241 322.186 150.075 323.096 150.119C326.658 150.113 328.439 152.269 328.439 156.587Z" fill="#EA275E"/>
<path d="M341.011 150.364C341.573 150.535 342.108 150.783 342.602 151.101C343.097 151.424 343.542 151.818 343.923 152.269C344.321 152.741 344.663 153.258 344.939 153.81C345.231 154.408 345.45 155.039 345.591 155.69C345.746 156.399 345.823 157.123 345.82 157.849C345.851 159.242 345.562 160.624 344.973 161.887C344.436 163.016 343.587 163.968 342.526 164.63C341.447 165.289 340.201 165.627 338.937 165.604C338.241 165.628 337.549 165.497 336.91 165.221C336.272 164.944 335.703 164.528 335.245 164.004H335.194V171.293H329.784V150.423H335.228V151.914C335.716 151.335 336.328 150.872 337.018 150.56C337.708 150.248 338.459 150.095 339.216 150.11C339.823 150.106 340.428 150.192 341.011 150.364V150.364ZM339.605 160.033C340.089 159.417 340.351 158.657 340.351 157.874C340.351 157.091 340.089 156.331 339.605 155.715C339.373 155.441 339.081 155.223 338.753 155.076C338.425 154.93 338.068 154.859 337.709 154.868C337.338 154.857 336.969 154.927 336.629 155.073C336.288 155.219 335.983 155.438 335.736 155.715C335.234 156.322 334.959 157.086 334.959 157.874C334.959 158.662 335.234 159.426 335.736 160.033C335.983 160.309 336.288 160.529 336.629 160.675C336.969 160.821 337.338 160.891 337.709 160.88C338.068 160.887 338.424 160.815 338.752 160.669C339.08 160.523 339.371 160.305 339.605 160.033V160.033Z" fill="#EA275E"/>
<path d="M361.872 150.423V165.256H356.725V163.86C356.268 164.426 355.682 164.875 355.017 165.17C354.351 165.464 353.625 165.596 352.898 165.553C351.936 165.561 350.984 165.365 350.104 164.977C349.271 164.611 348.524 164.075 347.911 163.402C347.266 162.714 346.763 161.906 346.43 161.023C346.083 160.01 345.911 158.945 345.922 157.874C345.915 156.809 346.083 155.751 346.421 154.741C346.72 153.84 347.191 153.006 347.81 152.286C348.389 151.615 349.105 151.075 349.909 150.703C350.72 150.324 351.605 150.13 352.5 150.135C353.236 150.124 353.965 150.277 354.633 150.585C355.301 150.893 355.892 151.347 356.361 151.913V150.449L361.872 150.423ZM355.946 160.024C356.434 159.414 356.699 158.655 356.699 157.874C356.699 157.092 356.434 156.334 355.946 155.723C355.718 155.454 355.434 155.238 355.114 155.092C354.793 154.946 354.444 154.872 354.092 154.877C353.731 154.868 353.374 154.94 353.044 155.086C352.715 155.232 352.422 155.45 352.187 155.723C351.709 156.342 351.45 157.101 351.45 157.882C351.45 158.664 351.709 159.423 352.187 160.041C352.423 160.313 352.716 160.53 353.045 160.677C353.374 160.823 353.732 160.895 354.092 160.888C354.44 160.886 354.783 160.807 355.098 160.658C355.412 160.509 355.69 160.293 355.912 160.024H355.946Z" fill="#EA275E"/>
<path d="M374.369 150.237C374.805 150.32 375.229 150.456 375.631 150.643C376.031 150.828 376.396 151.083 376.706 151.397C377.026 151.74 377.294 152.128 377.502 152.548C377.749 153.06 377.923 153.605 378.018 154.165C378.143 154.867 378.203 155.578 378.196 156.29V165.256H372.769V157.637C372.79 157.084 372.719 156.532 372.557 156.003C372.462 155.652 372.238 155.35 371.931 155.156C371.589 154.988 371.211 154.909 370.83 154.927C370.528 154.913 370.227 154.971 369.952 155.096C369.676 155.221 369.435 155.41 369.247 155.647C368.811 156.288 368.605 157.058 368.663 157.831V165.256H363.236V150.423H368.663V152.049C369.183 151.434 369.832 150.942 370.563 150.607C371.295 150.272 372.091 150.102 372.896 150.11C373.39 150.105 373.883 150.147 374.369 150.237V150.237Z" fill="#EA275E"/>
<path d="M393.689 150.424L386.07 171.293H380.803L383.343 164.19L377.654 150.424H383.242L385.782 157.459H385.832L388.212 150.424H393.689Z" fill="#EA275E"/>
<path d="M137.198 150.584H131.796V165.468H137.198V150.584Z" fill="#EA275E"/>
<path d="M90.7264 100.247C91.4326 97.1225 92.9241 94.2296 95.06 91.8422H95.0503C95.8936 90.8635 96.9351 90.0749 98.106 89.5289C99.2769 88.9828 100.55 88.6916 101.842 88.6746C102.236 88.6562 102.629 88.7164 103 88.8515C103.37 88.9866 103.71 89.194 103.999 89.4617C104.261 89.7 104.469 89.9914 104.61 90.3164C104.751 90.6414 104.821 90.9926 104.816 91.3467C104.816 95.3823 100.119 98.3491 90.7264 100.247Z" fill="url(#paint0_linear_1167_578)"/>
<path fill-rule="evenodd" clip-rule="evenodd" d="M131.619 180.581V212C131.619 212 114.415 212.161 95.2128 201.713C73.5048 189.86 52.0339 164.181 52.0339 127.555L52 55.5565C52.0143 54.3018 52.3438 53.0709 52.9583 51.9769C53.5727 50.8828 54.4523 49.9608 55.5163 49.2957C56.5802 48.6305 57.7943 48.2435 59.0469 48.1702C60.2995 48.097 61.5505 48.3398 62.6847 48.8764C70.8093 52.6496 79.2969 55.5856 88.0163 57.6392C102.035 60.9634 116.342 62.9254 130.738 63.498V135.209C130.738 136.556 130.203 137.848 129.25 138.801C128.298 139.754 127.006 140.289 125.658 140.289H96.5929C98.3116 160.422 108.336 173.537 131.619 180.581ZM121.499 119.126L106.72 111.188C104.194 114.952 101.097 116.833 97.4309 116.833C96.044 116.82 94.692 116.397 93.5442 115.619C92.2245 114.705 91.2252 113.4 90.6876 111.888L90.7459 111.771C94.14 111.224 97.5032 110.501 100.822 109.604C103.916 108.768 106.935 107.676 109.849 106.339C112.466 105.173 114.935 103.698 117.204 101.947C119.189 100.39 120.841 98.4507 122.062 96.2438C123.278 94.0886 123.911 91.654 123.899 89.1799C123.924 87.0161 123.518 84.869 122.704 82.8641C121.987 81.0576 120.897 79.4222 119.507 78.0641C118.124 76.7536 116.556 75.6535 114.853 74.7993C113.11 73.9184 111.262 73.2653 109.353 72.856C107.437 72.4465 105.483 72.2413 103.523 72.2438C99.6971 72.2147 95.8956 72.856 92.2908 74.1386C88.948 75.3089 85.8439 77.0733 83.128 79.3467C80.4917 81.5761 78.214 84.1978 76.375 87.1199C74.4753 90.1249 73.0435 93.4012 72.1289 96.8365C71.1712 100.404 70.6909 104.083 70.7005 107.777C70.7005 115.764 72.8835 121.96 77.2495 126.365C81.6155 130.77 87.7143 132.973 95.5459 132.973C107.115 132.973 115.766 128.357 121.499 119.126Z" fill="url(#paint1_linear_1167_578)"/>
<path d="M458.732 75.7561C457.854 73.8049 456.78 72.1463 455.317 70.6829C453.854 69.2195 452.195 68.0488 450.244 67.2683C448.293 66.4878 446.244 66 444 66C441.756 66 439.707 66.3902 437.756 67.2683C435.805 68.0488 434.146 69.2195 432.683 70.6829C431.22 72.1463 430.049 73.8049 429.268 75.7561C428.488 77.7073 428 79.7561 428 82C428 84.2439 428.39 86.2927 429.268 88.2439C430.049 90.1951 431.22 91.8537 432.683 93.3171C434.146 94.7805 435.805 95.9512 437.756 96.7317C439.707 97.5122 441.756 98 444 98C446.244 98 448.293 97.6098 450.244 96.7317C452.195 95.8537 453.854 94.7805 455.317 93.3171C456.78 91.8537 457.951 90.1951 458.732 88.2439C459.512 86.2927 460 84.2439 460 82C460 79.7561 459.512 77.7073 458.732 75.7561ZM454.146 87.8537C453.073 89.6098 451.707 91.0732 449.951 92.1463C448.195 93.2195 446.244 93.7073 444 93.7073C441.854 93.7073 439.902 93.2195 438.049 92.1463C436.293 91.0732 434.829 89.7073 433.854 87.8537C432.78 86.0976 432.293 84.1463 432.293 81.9024C432.293 79.7561 432.78 77.8049 433.854 75.9512C434.927 74.1951 436.293 72.7317 438.049 71.6585C439.902 70.6829 441.854 70.1951 444 70.1951C446.146 70.1951 448.098 70.6829 449.951 71.7561C451.707 72.8293 453.171 74.1951 454.244 76.0488C455.317 77.8049 455.805 79.7561 455.805 82C455.707 84.1463 455.22 86.0976 454.146 87.8537Z" fill="#EA275E"/>
<path d="M449.854 81.9025C450.341 81.122 450.537 80.2439 450.537 79.2683C450.537 78.1951 450.341 77.3171 449.854 76.6342C449.366 75.8537 448.78 75.3659 448 74.9756C447.219 74.5854 446.341 74.3903 445.463 74.3903H438.244V89.122H442.049V84.1464H444.488L446.732 89.122H450.927L448.098 83.4634C448.878 83.0732 449.366 82.5854 449.854 81.9025ZM445.854 80.8293C445.463 81.2195 444.976 81.4146 444.39 81.4146H442.049V77.2195H444.488C445.073 77.2195 445.463 77.4146 445.951 77.7073C446.341 78 446.537 78.4878 446.537 79.2683C446.537 79.9512 446.341 80.5366 445.854 80.8293Z" fill="#EA275E"/>
<defs>
<linearGradient id="paint0_linear_1167_578" x1="51.9796" y1="130.07" x2="131.619" y2="130.07" gradientUnits="userSpaceOnUse">
<stop stop-color="#EA275E"/>
<stop offset="1" stop-color="#F7941D"/>
</linearGradient>
<linearGradient id="paint1_linear_1167_578" x1="51.9796" y1="130.07" x2="131.619" y2="130.07" gradientUnits="userSpaceOnUse">
<stop stop-color="#EA275E"/>
<stop offset="1" stop-color="#F7941D"/>
</linearGradient>
</defs>
</svg>
